<?xml version="1.0" standalone="no"?><!-- Generator: Gravit.io --><svg xmlns="http://www.w3.org/2000/svg" xmlns:xlink="http://www.w3.org/1999/xlink" style="isolation:isolate" viewBox="633.253 5900.896 99.495 63" width="40" height="40"><path d=" M 722.783 5914.381 C 718.779 5910.881 714.058 5908.806 708.798 5908.047 C 702.225 5907.097 696.041 5908.291 690.29 5911.641 C 689.891 5911.873 689.902 5911.87 689.711 5911.432 C 687.137 5905.529 682.681 5902.05 676.313 5901.03 C 676.096 5900.996 675.855 5901.05 675.661 5900.896 C 675.559 5900.896 675.457 5900.896 675.355 5900.896 C 675.202 5901.008 675.049 5900.987 674.896 5900.896 C 674.36 5900.896 673.824 5900.896 673.288 5900.896 C 673.135 5900.984 672.982 5901.01 672.829 5900.896 C 672.727 5900.896 672.625 5900.896 672.523 5900.896 C 672.488 5900.928 672.447 5900.933 672.404 5900.934 C 671.924 5901.082 671.418 5901.086 670.928 5901.181 C 663.945 5902.53 658.565 5908.066 657.463 5915.058 C 657.396 5915.485 657.322 5915.918 657.321 5916.348 C 657.321 5916.743 657.142 5916.764 656.83 5916.734 C 655.52 5916.609 654.208 5916.612 652.898 5916.731 C 648.619 5917.122 644.78 5918.641 641.426 5921.319 C 637.205 5924.689 634.598 5929.054 633.587 5934.363 C 633.475 5934.95 633.422 5935.548 633.338 5936.141 C 633.324 5936.235 633.368 5936.351 633.253 5936.415 C 633.253 5936.568 633.253 5936.721 633.253 5936.874 C 633.351 5937.027 633.351 5937.181 633.253 5937.334 C 633.253 5937.921 633.253 5938.507 633.253 5939.094 C 633.351 5939.247 633.351 5939.4 633.253 5939.554 C 633.253 5939.707 633.253 5939.86 633.253 5940.013 C 633.282 5940.046 633.29 5940.083 633.292 5940.12 C 633.428 5940.517 633.406 5940.94 633.467 5941.349 C 634.144 5945.832 636.027 5949.734 639.14 5953.021 C 642.6 5956.674 646.847 5958.859 651.826 5959.582 C 654.578 5959.982 657.317 5959.849 660.02 5959.171 C 660.319 5959.095 660.529 5959.135 660.778 5959.329 C 664.078 5961.901 667.819 5963.381 671.979 5963.81 C 672.085 5963.821 672.214 5963.776 672.293 5963.896 C 672.421 5963.896 672.548 5963.896 672.676 5963.896 C 672.829 5963.784 672.982 5963.805 673.135 5963.896 C 673.747 5963.896 674.36 5963.896 674.972 5963.896 C 675.1 5963.808 675.227 5963.802 675.355 5963.896 C 675.508 5963.896 675.661 5963.896 675.814 5963.896 C 675.853 5963.863 675.896 5963.855 675.939 5963.855 C 676.334 5963.736 676.749 5963.75 677.152 5963.692 C 681.211 5963.103 684.815 5961.493 687.966 5958.874 C 688.171 5958.704 688.296 5958.694 688.517 5958.847 C 692.642 5961.72 697.216 5963.359 702.219 5963.811 C 702.324 5963.821 702.454 5963.768 702.53 5963.896 C 702.709 5963.896 702.887 5963.896 703.066 5963.896 C 703.244 5963.786 703.423 5963.795 703.602 5963.896 C 704.291 5963.896 704.98 5963.896 705.668 5963.896 C 705.822 5963.799 705.975 5963.794 706.128 5963.896 C 706.306 5963.896 706.485 5963.896 706.664 5963.896 C 706.684 5963.879 706.706 5963.869 706.728 5963.863 C 706.962 5963.751 707.224 5963.789 707.469 5963.764 C 713.754 5963.101 719.231 5960.636 723.847 5956.33 C 728.556 5951.936 731.529 5946.54 732.418 5940.159 C 733.85 5929.876 730.612 5921.223 722.783 5914.381 Z  M 678.736 5943.423 C 678.736 5948.231 678.732 5953.038 678.744 5957.846 C 678.744 5958.2 678.676 5958.321 678.291 5958.318 C 676.034 5958.298 673.777 5958.302 671.52 5958.315 C 671.219 5958.316 671.138 5958.235 671.138 5957.933 C 671.146 5948.254 671.146 5938.575 671.138 5928.897 C 671.137 5928.581 671.242 5928.523 671.528 5928.524 C 673.785 5928.535 676.042 5928.538 678.299 5928.522 C 678.647 5928.519 678.745 5928.61 678.744 5928.962 C 678.732 5933.782 678.736 5938.603 678.736 5943.423 Z  M 674.997 5926.081 C 672.371 5926.084 670.243 5923.968 670.238 5921.35 C 670.234 5918.746 672.319 5916.668 674.936 5916.669 C 677.534 5916.67 679.65 5918.791 679.654 5921.397 C 679.659 5923.982 677.575 5926.077 674.997 5926.081 Z  M 724.281 5950.069 C 721.23 5954.017 717.313 5956.707 712.542 5958.156 C 710.033 5958.918 707.46 5959.222 704.769 5959.229 C 700.899 5959.198 697.076 5958.569 693.491 5956.839 C 688.981 5954.662 685.636 5951.278 683.322 5946.864 C 681.549 5943.481 680.776 5939.846 680.695 5936.041 C 680.615 5932.271 681.196 5928.626 682.917 5925.253 C 686.198 5918.82 691.338 5914.593 698.373 5912.876 C 703.801 5911.552 709.209 5911.816 714.463 5913.835 C 718.423 5915.357 721.703 5917.813 724.27 5921.207 C 724.457 5921.455 724.463 5921.571 724.2 5921.765 C 723.196 5922.509 722.206 5923.272 721.226 5924.047 C 720.989 5924.234 720.893 5924.179 720.728 5923.965 C 718.043 5920.489 714.621 5918.045 710.336 5917.034 C 702.606 5915.211 695.806 5916.953 690.288 5922.804 C 687.555 5925.702 686.112 5929.261 685.678 5933.22 C 685.291 5936.753 685.571 5940.228 687.038 5943.489 C 689.797 5949.618 694.521 5953.369 701.139 5954.621 C 704.516 5955.26 707.891 5955.14 711.198 5954.1 C 713.973 5953.227 716.378 5951.733 718.497 5949.755 C 719.3 5949.005 720.047 5948.204 720.733 5947.347 C 720.894 5947.145 721.001 5947.116 721.216 5947.282 C 722.213 5948.057 723.215 5948.824 724.235 5949.568 C 724.494 5949.757 724.437 5949.868 724.281 5950.069 Z " fill-rule="evenodd" fill="rgb(135, 233, 254)"/></svg>
